# xmcd
#
# Track frame offsets:
#	150
#	15040
#	34407
#	51937
#	68375
#	84980
#	98685
#	111415
#	126225
#	138840
#	162737
#	177282
#	191157
#	212200
#	224867
#	242465
#	255787
#	283542
#	303465
#
# Disc length: 4299 seconds
#
# Revision: 2
# Processed by: cddbd v1.5.2PL0 Copyright (c) Steve Scherf et al.
# Submitted via: EZCDAudioConverter 1.3.2.1
#
DISCID=0d10c913
DTITLE=Various Artist - Living Chicago Blues Vol.3
DYEAR=1991
DGENRE=Blues
TTITLE0=A.C Reed and the Spark plugs - Hard Times
TTITLE1=A.C Reed and the Spark plugs - She's Fine
TTITLE2=A.C Reed and the Spark plugs - Moving out of the Ghetto
TTITLE3=A.C Reed and the Spark plugs - Going to New York
TTITLE4=Scotty and the Rib Tips - Big Leg Woman
TTITLE5=Scotty and the Rib Tips - Careless With Our Love
TTITLE6=Scotty and the Rib Tips - Road Block
TTITLE7=Scotty and the Rib Tips - Poison Ivy
TTITLE8=Lovie Lee with Carey Bell - I Dare You
TTITLE9=Lovie Lee with Carey Bell - Nobody Knows My Troubles
TTITLE10=Lovie Lee with Carey Bell - Sweet Little Girl
TTITLE11=Lovie Lee with Carey Bell - Naptown
TTITLE12=Lacy Gibson - Drown In My Own Tears
TTITLE13=Lacy Gibson - Crying for My Baby
TTITLE14=Lacy Gibson - Feel So Bad
TTITLE15=The Sons of Blues - Wish Me Well
TTITLE16=The Sons of Blues - Have You Ever Loved a Woman?
TTITLE17=The Sons of Blues - Berlin Wall
TTITLE18=The Sons of Blues - Prisner of the Blues
EXTD=
EXTT0=
EXTT1=
EXTT2=
EXTT3=
EXTT4=
EXTT5=
EXTT6=
EXTT7=
EXTT8=
EXTT9=
EXTT10=
EXTT11=
EXTT12=
EXTT13=
EXTT14=
EXTT15=
EXTT16=
EXTT17=
EXTT18=
PLAYORDER=
